<svg class="show-for-large" id="Layer_1" xmlns="http://www.w3.org/2000/svg" xmlns:xlink="http://www.w3.org/1999/xlink" width="639" height="318.8" viewBox="0 0 639 318.79999"><style>.st0{opacity:.2;fill-rule:evenodd;clip-rule:evenodd;fill:none;stroke:#3d302a;stroke-miterlimit:10;stroke-dasharray:4.029,4.02886}.st1{fill:url(#SVGID_1_)}.st2{clip-path:url(#SVGID_3_);fill:url(#SVGID_4_)}.st3{fill:url(#SVGID_5_)}.st4{clip-path:url(#SVGID_7_);fill:url(#SVGID_8_)}.st5{fill:url(#SVGID_9_)}.st6{clip-path:url(#SVGID_11_);fill:url(#SVGID_12_)}.st7{fill:url(#SVGID_13_)}.st8{clip-path:url(#SVGID_15_);fill:url(#SVGID_16_)}</style><path id="path-01_1_" class="st0" d="M11.494 64.258l-2.428.196"/><path id="path-02" class="st0" d="M9.066 64.454l1.36 1.544"/><path id="path-03" class="st0" d="M168.832 245.824l4.358-2.194"/><path id="path-04" class="st0" d="M11.06 65.37l-1.994-.916"/><path id="path-05" class="st0" d="M531.152 297.052l-2.191 6.375"/><g id="pin-01"><linearGradient id="SVGID_1_" gradientUnits="userSpaceOnUse" x1="7.965" y1="521.6" x2="12.007" y2="521.6" gradientTransform="matrix(1 0 0 -1 0 592)"><stop offset="0" stop-color="#755c52"/><stop offset="1" stop-color="#fff"/></linearGradient><path class="st1" d="M12 62.1H8l1.5 16.6 1-.8L12 62.1z"/><defs><circle id="SVGID_2_" cx="10" cy="58" r="10"/></defs><clipPath id="SVGID_3_"><use xlink:href="#SVGID_2_" overflow="visible"/></clipPath><radialGradient id="SVGID_4_" cx="5.958" cy="536.76" r="15.625" gradientTransform="matrix(1 0 0 -1 0 592)" gradientUnits="userSpaceOnUse"><stop offset="0" stop-color="#f5b12f"/><stop offset="1" stop-color="#e9661a"/></radialGradient><path class="st2" d="M6 39.6c8.6 0 15.6 7 15.6 15.6S14.6 70.8 6 70.8s-15.6-7-15.6-15.6C-9.7 46.6-2.7 39.6 6 39.6z"/></g><g id="pin-02"><linearGradient id="SVGID_5_" gradientUnits="userSpaceOnUse" x1="168.465" y1="338.6" x2="172.507" y2="338.6" gradientTransform="matrix(1 0 0 -1 0 592)"><stop offset="0" stop-color="#755c52"/><stop offset="1" stop-color="#fff"/></linearGradient><path class="st3" d="M172.5 245.1h-4l1.5 16.6 1-.8 1.5-15.8z"/><defs><circle id="SVGID_6_" cx="170.5" cy="241" r="10"/></defs><clipPath id="SVGID_7_"><use xlink:href="#SVGID_6_" overflow="visible"/></clipPath><radialGradient id="SVGID_8_" cx="166.458" cy="353.76" r="15.625" gradientTransform="matrix(1 0 0 -1 0 592)" gradientUnits="userSpaceOnUse"><stop offset="0" stop-color="#f5b12f"/><stop offset="1" stop-color="#e9661a"/></radialGradient><path class="st4" d="M166.5 222.6c8.6 0 15.6 7 15.6 15.6s-7 15.6-15.6 15.6-15.6-7-15.6-15.6c-.1-8.6 6.9-15.6 15.6-15.6z"/></g><g id="pin-03"><linearGradient id="SVGID_9_" gradientUnits="userSpaceOnUse" x1="527.465" y1="281.6" x2="531.507" y2="281.6" gradientTransform="matrix(1 0 0 -1 0 592)"><stop offset="0" stop-color="#755c52"/><stop offset="1" stop-color="#fff"/></linearGradient><path class="st5" d="M531.5 302.1h-4l1.5 16.6 1-.8 1.5-15.8z"/><defs><circle id="SVGID_10_" cx="529.5" cy="298" r="10"/></defs><clipPath id="SVGID_11_"><use xlink:href="#SVGID_10_" overflow="visible"/></clipPath><radialGradient id="SVGID_12_" cx="525.458" cy="296.76" r="15.641" gradientTransform="matrix(1 0 0 -1 0 592)" gradientUnits="userSpaceOnUse"><stop offset="0" stop-color="#f5b12f"/><stop offset="1" stop-color="#e9661a"/></radialGradient><path class="st6" d="M525.5 279.6c8.6 0 15.6 7 15.6 15.6s-7 15.6-15.6 15.6-15.6-7-15.6-15.6c-.1-8.6 6.9-15.6 15.6-15.6z"/></g><g id="pin-04"><linearGradient id="SVGID_13_" gradientUnits="userSpaceOnUse" x1="626.965" y1="569.6" x2="631.007" y2="569.6" gradientTransform="matrix(1 0 0 -1 0 592)"><stop offset="0" stop-color="#755c52"/><stop offset="1" stop-color="#fff"/></linearGradient><path class="st7" d="M631 14.1h-4l1.5 16.6 1-.8 1.5-15.8z"/><defs><circle id="SVGID_14_" cx="629" cy="10" r="10"/></defs><clipPath id="SVGID_15_"><use xlink:href="#SVGID_14_" overflow="visible"/></clipPath><radialGradient id="SVGID_16_" cx="624.958" cy="584.76" r="15.641" gradientTransform="matrix(1 0 0 -1 0 592)" gradientUnits="userSpaceOnUse"><stop offset="0" stop-color="#f5b12f"/><stop offset="1" stop-color="#e9661a"/></radialGradient><path class="st8" d="M625-8.4c8.6 0 15.6 7 15.6 15.6s-7 15.6-15.6 15.6-15.6-7-15.6-15.6c-.1-8.6 6.9-15.6 15.6-15.6z"/></g></svg>