<svg id="Layer_1" xmlns="http://www.w3.org/2000/svg" xmlns:xlink="http://www.w3.org/1999/xlink" width="20" height="31" viewBox="0 0 20 31"><style>.st0{fill:url(#SVGID_1_)}.st1{clip-path:url(#SVGID_3_);fill-rule:evenodd;clip-rule:evenodd;fill:url(#SVGID_4_)}</style><linearGradient id="SVGID_1_" gradientUnits="userSpaceOnUse" x1="7.965" y1="22.462" x2="12.007" y2="22.462"><stop offset="0" stop-color="#755c52"/><stop offset="1" stop-color="#fff"/></linearGradient><path class="st0" d="M12.007 14.144H7.965l1.52 16.636.958-.802 1.564-15.834z"/><defs><path id="SVGID_2_" d="M10 0c5.523 0 10 4.477 10 10s-4.477 10-10 10S0 15.523 0 10 4.477 0 10 0z"/></defs><clipPath id="SVGID_3_"><use xlink:href="#SVGID_2_" overflow="visible"/></clipPath><radialGradient id="SVGID_4_" cx="5.958" cy="7.24" r="15.625" gradientUnits="userSpaceOnUse"><stop offset="0" stop-color="#f5b12f"/><stop offset="1" stop-color="#e9661a"/></radialGradient><path class="st1" d="M5.958-8.385c8.63 0 15.625 6.995 15.625 15.625 0 8.63-6.995 15.625-15.625 15.625S-9.667 15.869-9.667 7.24c0-8.63 6.996-15.625 15.625-15.625z"/></svg>