<svg class="hide-for-large" id="Layer_2" xmlns="http://www.w3.org/2000/svg" xmlns:xlink="http://www.w3.org/1999/xlink" width="275" height="320" viewBox="0 0 275 320"><style>.st0{opacity:.2;fill:none;stroke:#3d302a;stroke-miterlimit:10;stroke-dasharray:4.029,4.0289;enable-background:new}.st1{fill:url(#SVGID_111_)}.st2{clip-path:url(#SVGID_31_);fill:url(#SVGID_41_)}.st3{fill:url(#SVGID_51_)}.st4{clip-path:url(#SVGID_71_);fill:url(#SVGID_81_)}.st5{fill:url(#SVGID_91_)}.st6{clip-path:url(#SVGID_111_);fill:url(#SVGID_121_)}.st7{fill:url(#SVGID_131_)}.st8{clip-path:url(#SVGID_151_);fill:url(#SVGID_161_)}</style><path id="path-11_1_" class="st0" d="M264.533 14.4l-255 50.1"/><path id="path-12" class="st0" d="M9.533 64.5l65.81 181.4"/><path id="path-13" class="st0" d="M75.301 245.8L264.533 14.4"/><path id="path-14" class="st0" d="M223.64 303.4L9.532 64.5"/><path id="path-15" class="st0" d="M264.533 14.4l-40.894 289"/><g id="pin-01"><linearGradient id="SVGID_111_" gradientUnits="userSpaceOnUse" x1="8.298" y1="-471.6" x2="12.34" y2="-471.6" gradientTransform="translate(0 542)"><stop offset="0" stop-color="#755c52"/><stop offset="1" stop-color="#fff"/></linearGradient><path class="st1" d="M12.333 62.1h-4l1.5 16.6 1-.8 1.5-15.8z"/><defs><circle id="SVGID_21_" cx="10.333" cy="58" r="10"/></defs><clipPath id="SVGID_31_"><use xlink:href="#SVGID_21_" overflow="visible"/></clipPath><radialGradient id="SVGID_41_" cx="6.292" cy="-486.76" r="15.625" gradientTransform="translate(0 542)" gradientUnits="userSpaceOnUse"><stop offset="0" stop-color="#f5b12f"/><stop offset="1" stop-color="#e9661a"/></radialGradient><path class="st2" d="M6.333 39.6c8.6 0 15.6 7 15.6 15.6s-7 15.6-15.6 15.6-15.6-7-15.6-15.6c-.1-8.6 6.9-15.6 15.6-15.6z"/></g><g id="pin-02"><linearGradient id="SVGID_51_" gradientUnits="userSpaceOnUse" x1="73.798" y1="-288.6" x2="77.84" y2="-288.6" gradientTransform="translate(0 542)"><stop offset="0" stop-color="#755c52"/><stop offset="1" stop-color="#fff"/></linearGradient><path class="st3" d="M77.833 245.1h-4l1.5 16.6 1-.8 1.5-15.8z"/><defs><circle id="SVGID_61_" cx="75.833" cy="241" r="10"/></defs><clipPath id="SVGID_71_"><use xlink:href="#SVGID_61_" overflow="visible"/></clipPath><radialGradient id="SVGID_81_" cx="71.792" cy="-303.76" r="15.625" gradientTransform="translate(0 542)" gradientUnits="userSpaceOnUse"><stop offset="0" stop-color="#f5b12f"/><stop offset="1" stop-color="#e9661a"/></radialGradient><path class="st4" d="M71.833 222.6c8.6 0 15.6 7 15.6 15.6s-7 15.6-15.6 15.6-15.6-7-15.6-15.6c-.1-8.6 6.9-15.6 15.6-15.6z"/></g><g id="pin-03"><linearGradient id="SVGID_91_" gradientUnits="userSpaceOnUse" x1="221.465" y1="-231.6" x2="225.507" y2="-231.6" gradientTransform="translate(0 542)"><stop offset="0" stop-color="#755c52"/><stop offset="1" stop-color="#fff"/></linearGradient><path class="st5" d="M225.5 302.1h-4l1.5 16.6 1-.8 1.5-15.8z"/><defs><circle id="SVGID_101_" cx="223.5" cy="298" r="10"/></defs><clipPath id="SVGID_111_"><use xlink:href="#SVGID_101_" overflow="visible"/></clipPath><radialGradient id="SVGID_121_" cx="219.458" cy="-246.76" r="15.641" gradientTransform="translate(0 542)" gradientUnits="userSpaceOnUse"><stop offset="0" stop-color="#f5b12f"/><stop offset="1" stop-color="#e9661a"/></radialGradient><path class="st6" d="M219.5 279.6c8.6 0 15.6 7 15.6 15.6s-7 15.6-15.6 15.6-15.6-7-15.6-15.6c-.1-8.6 6.9-15.6 15.6-15.6z"/></g><g id="pin-04"><linearGradient id="SVGID_131_" gradientUnits="userSpaceOnUse" x1="262.631" y1="-519.6" x2="266.673" y2="-519.6" gradientTransform="translate(0 542)"><stop offset="0" stop-color="#755c52"/><stop offset="1" stop-color="#fff"/></linearGradient><path class="st7" d="M266.667 14.1h-4l1.5 16.6 1-.8 1.5-15.8z"/><defs><circle id="SVGID_141_" cx="264.667" cy="10" r="10"/></defs><clipPath id="SVGID_151_"><use xlink:href="#SVGID_141_" overflow="visible"/></clipPath><radialGradient id="SVGID_161_" cx="260.625" cy="-534.76" r="15.641" gradientTransform="translate(0 542)" gradientUnits="userSpaceOnUse"><stop offset="0" stop-color="#f5b12f"/><stop offset="1" stop-color="#e9661a"/></radialGradient><path class="st8" d="M260.667-8.4c8.6 0 15.6 7 15.6 15.6s-7 15.6-15.6 15.6-15.6-7-15.6-15.6c-.1-8.6 6.9-15.6 15.6-15.6z"/></g></svg>