<svg baseProfile="tiny" id="Layer_3" xmlns="http://www.w3.org/2000/svg" viewBox="0 0 500 500" height="500" width="500"><style><![CDATA[ */
    path { vector-effect: non-scaling-stroke; }
    circle { vector-effect: non-scaling-stroke; }
  /* ]]>*/</style><g id="W3"><path fill-rule="evenodd" fill="none" stroke="#D8D6D4" stroke-miterlimit="10" d="M71.885 329.008l356.817-206.01M449.75 87.812c13.117 0 23.75 10.634 23.75 23.75 0 13.117-10.633 23.75-23.75 23.75S426 124.68 426 111.562c0-13.116 10.633-23.75 23.75-23.75z"/><animateTransform attributeName="transform" begin="0s" dur="30s" type="rotate" from="0 250 225" to="30 250 225" repeatCount="indefinite" values="0 250 225;4 250 225;0 250 225" calcMode="paced"/></g><g id="W2"><path fill-rule="evenodd" fill="none" stroke="#D8D6D4" stroke-miterlimit="10" d="M250.272 20v412.017M249.75 432.812c13.117 0 23.75 10.633 23.75 23.75s-10.633 23.75-23.75 23.75S226 469.68 226 456.562s10.633-23.75 23.75-23.75z"/><animateTransform attributeName="transform" begin="0s" dur="40s" type="rotate" from="0 250 225" to="30 250 225" repeatCount="indefinite" values="0 250 225;-2 250 225;2 250 225;0 250 225" calcMode="paced"/></g><g id="W1"><path fill-rule="evenodd" fill="none" stroke="#D8D6D4" stroke-miterlimit="10" d="M428.697 329.03L71.879 123.02M50.75 87.812c13.117 0 23.75 10.633 23.75 23.75s-10.633 23.75-23.75 23.75S27 124.68 27 111.562s10.633-23.75 23.75-23.75z"/><animateTransform attributeName="transform" begin="0s" dur="40s" type="rotate" from="0 250 225" to="30 250 225" repeatCount="indefinite" values="0 250 225;-2 250 225;2 250 225;0 250 225" calcMode="paced"/></g><g id="W0" fill-rule="evenodd" fill="none" stroke="#D8D6D4" stroke-miterlimit="10"><path d="M433.481 49.831l-60.35 60.35M153.22 330.091l-80.779 80.78"/></g><circle fill="none" stroke="#D8D6D4" stroke-miterlimit="10" stroke-dasharray="3.99525,1.99762" cx="260.25" cy="216.062" r="165" id="Dash"><animateTransform attributeName="transform" begin="0s" dur="20s" type="rotate" from="0 250 225" to="360 250 225" repeatCount="indefinite"/></circle><circle fill="none" stroke="#D8D6D4" stroke-width="4" stroke-miterlimit="10" stroke-dasharray="1.00055,5.00273" cx="260.25" cy="216.062" r="150" id="Tick"><animateTransform attributeName="transform" begin="0s" dur="80s" type="rotate" from="180 250 225" to="540 250 225" repeatCount="indefinite"/></circle><path id="Solid" fill-rule="evenodd" fill="none" stroke="#D8D6D4" stroke-width="2" stroke-miterlimit="10" d="M240.25 71.062c91.127 0 165 73.873 165 165s-73.873 165-165 165-165-73.873-165-165 73.873-165 165-165z"><animateTransform attributeName="transform" begin="0s" dur="30s" type="rotate" from="540 250 225" to="180 250 225" repeatCount="indefinite"/></path></svg>