<svg id="Layer_1" xmlns="http://www.w3.org/2000/svg" width="141.605" height="42.389" viewBox="0 0 141.6046 42.3887"><style>.st0{fill:#231f20}</style><path class="st0" d="M139.144 32.525v.078c.794.092 1.402.363 1.826.816.423.453.635 1.034.635 1.743 0 2.11-1.72 3.164-5.157 3.164h-6.025V27.262h6.045c1.608 0 2.809.234 3.603.703.795.469 1.192 1.188 1.192 2.158 0 .645-.19 1.179-.567 1.601-.377.424-.895.69-1.552.801zm-2.735-2.764h-2.168v1.66h2.022c.403 0 .704-.074.903-.224a.682.682 0 0 0 .298-.566c0-.58-.352-.87-1.055-.87zm.967 4.288c-.234-.15-.573-.225-1.016-.225h-2.119v2.002h2.08c.938 0 1.407-.345 1.407-1.035 0-.345-.118-.593-.352-.742zm-1.1-18.721c0-1.048.046-2.288.137-3.72l-4.404 6.718h-4.238V7.262h3.398v2.783c0 .156-.002.325-.005.508-.003.182-.047 1.34-.132 3.476l4.424-6.767h4.219v11.064h-3.399v-2.998zm-2.421-9.121c-1.557 0-2.72-.303-3.492-.908-.771-.606-1.202-1.543-1.294-2.813h3.184c.032.638.172 1.1.42 1.387.247.287.641.43 1.182.43.976 0 1.51-.606 1.601-1.817h3.232c-.267 2.48-1.878 3.721-4.833 3.721zm-4.59 25.918v1.699h-6.826c.025.619.252 1.103.678 1.455.427.352 1.008.527 1.743.527.67 0 1.288-.063 1.851-.19a9.142 9.142 0 0 0 1.831-.65v2.745c-.599.306-1.217.517-1.855.635-.639.117-1.4.175-2.286.175-1.842 0-3.273-.49-4.292-1.47-1.019-.98-1.528-2.374-1.528-4.184 0-1.869.472-3.302 1.416-4.302.944-.999 2.292-1.499 4.043-1.499 1.667 0 2.954.435 3.862 1.304.909.87 1.363 2.12 1.363 3.755zm-3.921-1.983c-.29-.318-.679-.478-1.167-.478-.45 0-.825.142-1.128.425-.303.283-.48.728-.532 1.333h3.28c-.012-.534-.164-.96-.453-1.28zm-2.608-14.814c0-1.048.045-2.288.136-3.72l-4.404 6.718h-4.238V7.262h3.398v2.783c0 .156-.002.325-.005.508-.003.182-.047 1.34-.132 3.476l4.424-6.767h4.219v11.064h-3.399v-2.998zm-13.727 3.193c-.56 0-1.061-.092-1.504-.278-.443-.185-.882-.519-1.318-1.001h-.176c.117.775.176 1.256.176 1.445v4.444h-3.819V7.26h3.106l.537 1.407h.176c.71-1.068 1.69-1.602 2.94-1.602 1.223 0 2.183.508 2.88 1.524.696 1.016 1.045 2.408 1.045 4.18 0 1.783-.363 3.188-1.089 4.213-.726 1.026-1.71 1.538-2.954 1.538zm-.176-7.837c-.221-.413-.59-.62-1.103-.62-.56 0-.952.2-1.177.6-.225.401-.347.996-.366 1.783v.303c0 .95.127 1.637.38 2.06.254.423.655.635 1.202.635.488 0 .843-.21 1.064-.63.221-.42.332-1.115.332-2.085 0-.95-.11-1.632-.332-2.046zM97.93 18.326H94.11v-8.223h-3.642V7.262h11.103v2.841H97.93v8.223zm-6.992 20H88.29l-.732-1.465h-.078c-.515.638-1.039 1.075-1.573 1.309-.534.234-1.224.351-2.07.351-1.042 0-1.862-.312-2.46-.937-.6-.625-.9-1.504-.9-2.637 0-1.178.41-2.056 1.231-2.632.82-.576 2.009-.9 3.565-.971l1.845-.06v-.155c0-.912-.449-1.368-1.347-1.368-.808 0-1.833.274-3.077.82l-1.103-2.519c1.289-.664 2.916-.996 4.883-.996 1.419 0 2.518.352 3.296 1.055s1.167 1.686 1.167 2.95v7.255zm-3.8-4.941l-.878.039c-1.257.045-1.885.507-1.885 1.386 0 .678.361 1.016 1.084 1.016.462 0 .858-.147 1.187-.44.328-.292.493-.673.493-1.142v-.86zm-.865-18.057c0-1.048.046-2.288.137-3.72l-4.404 6.718h-4.238V7.262h3.398v2.783c0 .156-.002.325-.005.508a464.49 464.49 0 0 1-.132 3.476l4.424-6.767h4.219v11.064h-3.399v-2.998zm-13.56-5.264c-.208.84-.444 1.708-.708 2.603-.264.895-.874 2.782-1.831 5.659h-2.598l-1.142-3.535a120.836 120.836 0 0 1-1.211-3.994l-.215-.733v8.262h-3.418V7.262h5.225l.859 2.587c.163.495.387 1.281.674 2.359.286 1.077.462 1.824.527 2.241.04-.306.27-1.172.694-2.597l.38-1.31 1.065-3.28h5.117v11.064h-3.418v-8.262zm-15.563 8.262h-8.32v4.443h-3.76v-7.607h1.182c.853-1.445 1.556-3.117 2.11-5.015.553-1.897.91-3.93 1.074-6.098h9.521v11.113h1.953v7.607h-3.76v-4.443zM55.07 7.203H52.53c-.267 2.786-1 5.44-2.197 7.96h4.736v-7.96zm-38.578 31.55V21.787a3.928 3.928 0 1 0-1.593-.018v16.895L1.5 26.495 0 0s7.853 2.59 15.715 2.59C23.598 2.59 31.491 0 31.491 0l-1.5 26.495-13.5 12.257zm39.565-11.59H50.41v11.163h-3.877V24.048h9.522v3.116zm5.015 4.18l1.846-.058v-.156c0-.912-.45-1.368-1.348-1.368-.807 0-1.832.274-3.076.82l-1.103-2.519c1.289-.664 2.916-.996 4.882-.996 1.42 0 2.518.352 3.296 1.055s1.167 1.686 1.167 2.95v7.255H64.09l-.732-1.465h-.079c-.514.638-1.038 1.075-1.572 1.309-.534.234-1.224.351-2.07.351-1.042 0-1.862-.312-2.461-.937-.6-.625-.899-1.504-.899-2.637 0-1.178.41-2.056 1.23-2.632.821-.576 2.01-.9 3.565-.971zm.186 4.483c.462 0 .858-.147 1.186-.44.33-.292.494-.673.494-1.142v-.86l-.88.04c-1.256.045-1.884.507-1.884 1.386 0 .678.361 1.016 1.084 1.016zm6.773-.264c.293 0 .53-.15.713-.454.183-.303.344-.786.484-1.45.14-.664.267-1.517.38-2.558.114-1.042.223-2.321.328-3.838h9.502v11.064h-3.819v-8.223h-2.246c-.215 2.377-.485 4.123-.81 5.24-.326 1.116-.775 1.925-1.348 2.426-.573.502-1.344.752-2.314.752-.678 0-1.254-.098-1.729-.293v-2.842c.215.118.501.176.86.176zm28.323-4.316h3.027v-3.984h3.818v11.064H99.38v-4.238h-3.027v4.238h-3.819V27.262h3.819v3.984zm12.3 4.238h3.545v-8.222h3.819v8.222h2.48v6.905h-3.34v-4.063h-10.322V27.262h3.818v8.222z"/></svg>