<svg xmlns="http://www.w3.org/2000/svg" width="564.715" height="77.313" viewBox="0 0 564.715 77.313"><defs><style>.cls-1{fill-rule:evenodd}</style></defs><path id="logo" class="cls-1" d="M726.91 140.074h-5.859v-33.34h-28.565a89.034 89.034 0 0 1-3.222 18.3 65.747 65.747 0 0 1-6.328 15.044h-3.545V162.9h11.279v-13.33h24.961v13.33h11.279v-22.826zm-31.728 0a70.953 70.953 0 0 0 6.591-23.877h7.618v23.877h-14.209zm75.89-23.7h-15.351l-3.194 9.844-1.142 3.925a78.139 78.139 0 0 0-2.08 7.794q-.294-1.875-1.582-6.724t-2.022-7.075l-2.578-7.764h-15.674v33.193H737.7v-24.786l.645 2.2q1.9 6.651 3.632 11.983l3.428 10.6h7.795q4.306-12.948 5.493-16.977t2.124-7.808v24.785h10.254v-33.191zm3.41 0v33.193H787.2l13.21-20.157q-.41 6.446-.41 11.162v8.994h10.2v-33.193h-12.661l-13.271 20.3q.379-9.609.395-10.43t.015-1.523v-8.35h-10.2zm69.914 0h-33.31v8.526h10.928v24.668h11.455V124.9H844.4v-8.525zm29.675 29.165q3.267-4.614 3.267-12.642 0-7.968-3.135-12.539a9.926 9.926 0 0 0-8.642-4.57 10.042 10.042 0 0 0-8.819 4.8h-.527l-1.612-4.219h-9.316v47.611h11.455v-13.33a42.318 42.318 0 0 0-.527-4.336h.527a10.336 10.336 0 0 0 8.467 3.838 10.3 10.3 0 0 0 8.862-4.614zm-9.389-18.9q.995 1.86 1 6.137 0 4.367-1 6.255a3.357 3.357 0 0 1-3.194 1.89 3.894 3.894 0 0 1-3.6-1.905q-1.143-1.9-1.143-6.181v-.905a11.809 11.809 0 0 1 1.1-5.347 3.7 3.7 0 0 1 3.53-1.8 3.461 3.461 0 0 1 3.307 1.859zm14.689-10.269v33.193h12.715L905.3 129.41q-.411 6.446-.41 11.162v8.994h10.195v-33.193h-12.657l-13.272 20.3q.381-9.609.4-10.43t.014-1.523v-8.35h-10.2zm39.123 0v33.193h12.715l13.213-20.156q-.411 6.446-.41 11.162v8.994h10.2v-33.19h-12.661l-13.272 20.3q.381-9.609.4-10.43t.014-1.523v-8.35h-10.199zm50.883-9.639v42.832h11.631V116.08h16.933v-9.346h-28.564zm59.1 42.832V127.8q0-5.684-3.5-8.848t-9.89-3.164q-8.85 0-14.65 2.988l3.31 7.559q5.6-2.462 9.23-2.461 4.05 0 4.05 4.1v.469l-5.54.176q-7 .323-10.7 2.915t-3.686 7.9q0 5.1 2.695 7.91a9.752 9.752 0 0 0 7.381 2.812 15.57 15.57 0 0 0 6.21-1.054 13.053 13.053 0 0 0 4.72-3.926h.23l2.2 4.394h7.94zm-19.69-10.547q0-3.954 5.66-4.16l2.63-.117v2.578a4.366 4.366 0 0 1-1.48 3.428 5.149 5.149 0 0 1-3.56 1.318c-2.16 0-3.25-1.015-3.25-3.047zm56.29-22.646h-28.5q-.465 6.826-.98 11.514t-1.15 7.675a14.733 14.733 0 0 1-1.45 4.351 2.429 2.429 0 0 1-2.13 1.362 5.365 5.365 0 0 1-2.58-.527v8.525a13.6 13.6 0 0 0 5.18.879 10.188 10.188 0 0 0 6.95-2.256q2.565-2.254 4.04-7.28a89.681 89.681 0 0 0 2.43-15.718h6.74v24.668h11.45v-33.19zm33 33.193V127.8q0-5.684-3.5-8.848t-9.88-3.164q-8.85 0-14.65 2.988l3.31 7.559c3.73-1.641 6.8-2.461 9.23-2.461q4.035 0 4.04 4.1v.469l-5.54.176q-7 .323-10.69 2.915t-3.69 7.9q0 5.1 2.69 7.91a9.756 9.756 0 0 0 7.39 2.812A15.637 15.637 0 0 0 1083 149.1a13.03 13.03 0 0 0 4.71-3.926h.24l2.19 4.394h7.94zm-19.68-10.547q0-3.954 5.65-4.16l2.64-.117v2.578a4.4 4.4 0 0 1-1.48 3.428 5.184 5.184 0 0 1-3.56 1.318q-3.255 0-3.25-3.047zm22.98-22.646v33.193h11.45v-12.712h9.08v12.715h11.46v-33.193h-11.46v11.953h-9.08v-11.953h-11.45zm76.39 24.668h-7.45v-24.665h-11.45v24.668h-10.64v-24.668h-11.45v33.193h30.97v12.188h10.02v-20.713zm23.06 8.584a20.215 20.215 0 0 0 5.57-1.9v-8.233a27.351 27.351 0 0 1-5.49 1.948 25.24 25.24 0 0 1-5.55.572 7.979 7.979 0 0 1-5.23-1.582 5.689 5.689 0 0 1-2.04-4.366h20.48v-5.1q0-7.353-4.09-11.265t-11.59-3.911q-7.875 0-12.12 4.5t-4.25 12.9q0 8.145 4.58 12.554t12.88 4.409a38.527 38.527 0 0 0 6.853-.523zm-4.02-24.61a5.762 5.762 0 0 1 1.36 3.839h-9.85a6 6 0 0 1 1.6-4 4.772 4.772 0 0 1 3.38-1.274 4.513 4.513 0 0 1 3.513 1.438zm42.68-6.533q-3.57-2.109-10.81-2.109h-18.14v33.193h18.08q15.465 0 15.47-9.492a7.351 7.351 0 0 0-1.91-5.229 8.527 8.527 0 0 0-5.47-2.447v-.234a7.71 7.71 0 0 0 4.65-2.4 6.916 6.916 0 0 0 1.7-4.805 7.011 7.011 0 0 0-3.567-6.474zm-11.25 23.584H1222v-6.003h6.36a5.671 5.671 0 0 1 3.04.674 2.43 2.43 0 0 1 1.06 2.227q0 3.1-4.22 3.1zm2.53-13.886a4.476 4.476 0 0 1-2.71.674H1222v-4.981h6.5c2.11 0 3.17.869 3.17 2.607a2.046 2.046 0 0 1-.9 1.703zM926.006 86.668l1 17.664 9.5 8.624 9.5-8.624 1-17.664a32.768 32.768 0 0 1-21 0zm10.494 9.338a2.618 2.618 0 1 1-2.619 2.618 2.618 2.618 0 0 1 2.619-2.618zm-.56 4.869H937v15.094h-1.062v-15.094z" transform="translate(-679.375 -86.656)"/></svg>