<svg xmlns="http://www.w3.org/2000/svg" width="50" height="32" viewBox="0 0 50 32"><path fill="#687684" d="M48.858 19.861c-.693-4.636-4.635-7.938-9.109-8.151 1.118-4.154 3.835-5.807 7.138-6.765.319-.106.267-.427.267-.427l-.534-3.3s-.053-.268-.479-.215c-11.4 1.278-19.125 9.962-17.686 20.51 1.331 7.297 7.031 10.121 12.305 9.375 5.274-.852 8.897-5.753 8.098-11.027zM12.475 11.71c1.065-4.154 3.889-5.807 7.138-6.765.319-.106.266-.427.266-.427L19.4 1.217s-.053-.268-.479-.215C7.521 2.229-.15 10.911 1.181 21.46c1.385 7.35 7.138 10.174 12.359 9.428 5.273-.852 8.896-5.753 8.043-11.026-.692-4.689-4.581-7.991-9.108-8.152z"/></svg>