<svg version="1.1" baseProfile="tiny" id="Layer_1" xmlns="http://www.w3.org/2000/svg" xmlns:xlink="http://www.w3.org/1999/xlink"
	 x="0px" y="0px" viewBox="0 0 500 500" height="500" width="500" xml:space="preserve" >

   <style>
  /* <![CDATA[ */
    path { vector-effect: non-scaling-stroke; }
    circle { vector-effect: non-scaling-stroke; }
  /* ]]> */
  </style>
  
  <g id="W3" >
	<path fill-rule="evenodd" fill="none" stroke="#D8D6D4" stroke-miterlimit="10" d="M71.8846,329.00751l356.8175-206.00861" />
	<path fill-rule="evenodd" fill="none" stroke="#D8D6D4" stroke-miterlimit="10" d="M449.75,87.8121 c13.11673,0,23.75,10.6335,23.75,23.7501c0,13.117-10.63327,23.74999-23.75,23.74999c-13.11682,0-23.75-10.633-23.75-23.74999
		C426,98.4456,436.63318,87.8121,449.75,87.8121z"/>
    <animateTransform
            attributeName="transform"
            begin="0s"
            dur="30s"
            type="rotate"
            from="0 250 225"
            to="30 250 225"
            repeatCount="indefinite"
            values="0 250 225;4 250 225;0 250 225"
            calcMode="paced"
        />
</g>
<g id="W2">
	<path fill-rule="evenodd" fill="none" stroke="#D8D6D4" stroke-miterlimit="10" d="M250.27229,20v412.01721"/>
	<path fill-rule="evenodd" fill="none" stroke="#D8D6D4" stroke-miterlimit="10" d="M249.75,432.81229
		c13.1167,0,23.75,10.63312,23.75,23.75012c0,13.11649-10.6333,23.75-23.75,23.75c-13.11681,0-23.75-10.63351-23.75-23.75
		C226,443.4454,236.63319,432.81229,249.75,432.81229z"/>
    <animateTransform
            attributeName="transform"
            begin="0s"
            dur="40s"
            type="rotate"
            from="0 250 225"
            to="30 250 225"
            repeatCount="indefinite"
            values="0 250 225;-2 250 225;2 250 225;0 250 225"
            calcMode="paced"
        />
</g>
<g id="W1">
	<path fill-rule="evenodd" fill="none" stroke="#D8D6D4" stroke-miterlimit="10" d="M428.69669,329.02911L71.8792,123.0205"/>
	<path fill-rule="evenodd" fill="none" stroke="#D8D6D4" stroke-miterlimit="10" d="M50.75,87.8123
		c13.1167,0,23.75,10.63309,23.75,23.7501c0,13.1165-10.6333,23.74999-23.75,23.74999c-13.1168,0-23.75-10.63349-23.75-23.74999
		C27,98.4454,37.6332,87.8123,50.75,87.8123z"/>
    <animateTransform
            attributeName="transform"
            begin="0s"
            dur="40s"
            type="rotate"
            from="0 250 225"
            to="30 250 225"
            repeatCount="indefinite"
            values="0 250 225;-2 250 225;2 250 225;0 250 225"
            calcMode="paced"
        />
</g>
<g id="W0">
	<path fill-rule="evenodd" fill="none" stroke="#D8D6D4" stroke-miterlimit="10" d="M433.48099,49.8311l-60.35071,60.3508"/>
	<path fill-rule="evenodd" fill="none" stroke="#D8D6D4" stroke-miterlimit="10" d="M153.22079,330.09131l-80.7794,80.7796"/>
</g>
<g id="Dash">
	
		<circle fill="none" stroke="#D8D6D4" stroke-miterlimit="10" stroke-dasharray="3.99525,1.99762" cx="260.25" cy="216.06212" r="164.99997">
    <animateTransform
            attributeName="transform"
            begin="0s"
            dur="20s"
            type="rotate"
            from="0 250 225"
            to="360 250 225"
            repeatCount="indefinite"
        />
</circle>
</g>
<g id="Tick">
	
		<circle fill="none" stroke="#D8D6D4" stroke-width="4" stroke-miterlimit="10" stroke-dasharray="1.00055,5.00273" cx="260.25" cy="216.06203" r="149.99998">
            <animateTransform
            attributeName="transform"
            begin="0s"
            dur="80s"
            type="rotate"
            from="180 250 225"
            to="540 250 225"
            repeatCount="indefinite"
        />
</circle>
</g>
<path id="Solid" fill-rule="evenodd" fill="none" stroke="#D8D6D4" stroke-width="2" stroke-miterlimit="10" d="M240.25,71.0623
	c91.12698,0,165,73.8728,165,164.99969c0,91.1274-73.87302,165.0002-165,165.0002s-165-73.8728-165-165.0002
	C75.25,144.9351,149.123,71.0623,240.25,71.0623z">
            <animateTransform
            attributeName="transform"
            begin="0s"
            dur="30s"
            type="rotate"
            from="540 250 225"
            to="180 250 225"
            repeatCount="indefinite"
        />
</path>
</svg>