<?xml version="1.0" encoding="utf-8"?>
<!-- Generator: Adobe Illustrator 19.2.1, SVG Export Plug-In . SVG Version: 6.00 Build 0)  -->
<svg version="1.1" id="Layer_1" xmlns="http://www.w3.org/2000/svg" xmlns:xlink="http://www.w3.org/1999/xlink" x="0px" y="0px"
	 width="20px" height="31px" viewBox="0 0 20 31" style="enable-background:new 0 0 20 31;" xml:space="preserve">
<style type="text/css">
	.st0{fill:url(#SVGID_1_);}
	.st1{clip-path:url(#SVGID_3_);fill-rule:evenodd;clip-rule:evenodd;fill:url(#SVGID_4_);}
</style>
<linearGradient id="SVGID_1_" gradientUnits="userSpaceOnUse" x1="7.9647" y1="22.46215" x2="12.0067" y2="22.46215">
	<stop  offset="0" style="stop-color:#755C52"/>
	<stop  offset="1" style="stop-color:#FFFFFF"/>
</linearGradient>
<path class="st0" d="M12.0067,14.1443h-4.042L9.4857,30.78l0.9575-0.802L12.0067,14.1443z"/>
<g>
	<defs>
		<path id="SVGID_2_" d="M10,0c5.5228,0,10,4.477,10,10c0,5.5229-4.4772,10-10,10S0,15.5229,0,10C0,4.477,4.4772,0,10,0z"/>
	</defs>
	<clipPath id="SVGID_3_">
		<use xlink:href="#SVGID_2_"  style="overflow:visible;"/>
	</clipPath>
	<radialGradient id="SVGID_4_" cx="5.95833" cy="7.23963" r="15.625" gradientUnits="userSpaceOnUse">
		<stop  offset="0" style="stop-color:#F5B12F"/>
		<stop  offset="1" style="stop-color:#E9661A"/>
	</radialGradient>
	<path class="st1" d="M5.95833-8.38537c8.62937,0,15.625,6.99531,15.625,15.625c0,8.62953-6.99562,15.625-15.625,15.625
		s-15.625-6.99547-15.625-15.625C-9.66667-1.39005-2.67104-8.38537,5.95833-8.38537z"/>
</g>
</svg>
