<?xml version="1.0" encoding="utf-8"?>
<!-- Generator: Adobe Illustrator 19.2.1, SVG Export Plug-In . SVG Version: 6.00 Build 0)  -->
<svg version="1.1" id="Layer_1" xmlns="http://www.w3.org/2000/svg" xmlns:xlink="http://www.w3.org/1999/xlink" x="0px" y="0px"
	 width="639px" height="318.79999px" viewBox="0 0 639 318.79999" style="enable-background:new 0 0 639 318.79999;"
	 xml:space="preserve">
<style type="text/css">
	
		.st0{opacity:0.2;fill-rule:evenodd;clip-rule:evenodd;fill:none;stroke:#3D302A;stroke-miterlimit:10;stroke-dasharray:4.029,4.02886;}
	.st1{fill:url(#SVGID_1_);}
	.st2{clip-path:url(#SVGID_3_);fill:url(#SVGID_4_);}
	.st3{fill:url(#SVGID_5_);}
	.st4{clip-path:url(#SVGID_7_);fill:url(#SVGID_8_);}
	.st5{fill:url(#SVGID_9_);}
	.st6{clip-path:url(#SVGID_11_);fill:url(#SVGID_12_);}
	.st7{fill:url(#SVGID_13_);}
	.st8{clip-path:url(#SVGID_15_);fill:url(#SVGID_16_);}
</style>
<path id="path-01_1_" class="st0" d="M11.49376,64.2579L9.06629,64.454"/>
<path id="path-02" class="st0" d="M9.06629,64.454l1.36009,1.54401"/>
<path id="path-03" class="st0" d="M168.83209,245.8244l4.35783-2.19475"/>
<path id="path-04" class="st0" d="M11.06017,65.3705L9.06629,64.454"/>
<path id="path-05" class="st0" d="M531.15179,297.05194l-2.1911,6.37555"/>
<g id="pin-01">
	
		<linearGradient id="SVGID_1_" gradientUnits="userSpaceOnUse" x1="7.9647" y1="521.59998" x2="12.0067" y2="521.59998" gradientTransform="matrix(1 0 0 -1 0 592)">
		<stop  offset="0" style="stop-color:#755C52"/>
		<stop  offset="1" style="stop-color:#FFFFFF"/>
	</linearGradient>
	<path class="st1" d="M12,62.1H8l1.5,16.6l1-0.8L12,62.1z"/>
	<g>
		<defs>
			<circle id="SVGID_2_" cx="10" cy="58" r="10"/>
		</defs>
		<clipPath id="SVGID_3_">
			<use xlink:href="#SVGID_2_"  style="overflow:visible;"/>
		</clipPath>
		
			<radialGradient id="SVGID_4_" cx="5.9583" cy="536.76038" r="15.625" gradientTransform="matrix(1 0 0 -1 0 592)" gradientUnits="userSpaceOnUse">
			<stop  offset="0" style="stop-color:#F5B12F"/>
			<stop  offset="1" style="stop-color:#E9661A"/>
		</radialGradient>
		<path class="st2" d="M6,39.6c8.6,0,15.6,7,15.6,15.6S14.6,70.8,6,70.8s-15.6-7-15.6-15.6C-9.7,46.6-2.7,39.6,6,39.6z"/>
	</g>
</g>
<g id="pin-02">
	
		<linearGradient id="SVGID_5_" gradientUnits="userSpaceOnUse" x1="168.46471" y1="338.59998" x2="172.5067" y2="338.59998" gradientTransform="matrix(1 0 0 -1 0 592)">
		<stop  offset="0" style="stop-color:#755C52"/>
		<stop  offset="1" style="stop-color:#FFFFFF"/>
	</linearGradient>
	<path class="st3" d="M172.5,245.10001h-4l1.5,16.60001l1-0.79999L172.5,245.10001z"/>
	<g>
		<defs>
			<circle id="SVGID_6_" cx="170.5" cy="241" r="10"/>
		</defs>
		<clipPath id="SVGID_7_">
			<use xlink:href="#SVGID_6_"  style="overflow:visible;"/>
		</clipPath>
		
			<radialGradient id="SVGID_8_" cx="166.4583" cy="353.76041" r="15.625" gradientTransform="matrix(1 0 0 -1 0 592)" gradientUnits="userSpaceOnUse">
			<stop  offset="0" style="stop-color:#F5B12F"/>
			<stop  offset="1" style="stop-color:#E9661A"/>
		</radialGradient>
		<path class="st4" d="M166.5,222.60001c8.60001,0,15.60001,7,15.60001,15.60001s-7,15.60001-15.60001,15.60001
			s-15.60001-7-15.60001-15.60001C150.8,229.60001,157.8,222.60001,166.5,222.60001z"/>
	</g>
</g>
<g id="pin-03">
	
		<linearGradient id="SVGID_9_" gradientUnits="userSpaceOnUse" x1="527.46472" y1="281.59998" x2="531.50671" y2="281.59998" gradientTransform="matrix(1 0 0 -1 0 592)">
		<stop  offset="0" style="stop-color:#755C52"/>
		<stop  offset="1" style="stop-color:#FFFFFF"/>
	</linearGradient>
	<path class="st5" d="M531.5,302.10001h-4l1.5,16.60001l1-0.79999L531.5,302.10001z"/>
	<g>
		<defs>
			<circle id="SVGID_10_" cx="529.5" cy="298" r="10"/>
		</defs>
		<clipPath id="SVGID_11_">
			<use xlink:href="#SVGID_10_"  style="overflow:visible;"/>
		</clipPath>
		
			<radialGradient id="SVGID_12_" cx="525.45831" cy="296.76041" r="15.64063" gradientTransform="matrix(1 0 0 -1 0 592)" gradientUnits="userSpaceOnUse">
			<stop  offset="0" style="stop-color:#F5B12F"/>
			<stop  offset="1" style="stop-color:#E9661A"/>
		</radialGradient>
		<path class="st6" d="M525.5,279.60001c8.59998,0,15.59998,7,15.59998,15.60001s-7,15.60001-15.59998,15.60001
			s-15.60001-7-15.60001-15.60001C509.79999,286.60001,516.79999,279.60001,525.5,279.60001z"/>
	</g>
</g>
<g id="pin-04">
	
		<linearGradient id="SVGID_13_" gradientUnits="userSpaceOnUse" x1="626.96472" y1="569.59998" x2="631.00671" y2="569.59998" gradientTransform="matrix(1 0 0 -1 0 592)">
		<stop  offset="0" style="stop-color:#755C52"/>
		<stop  offset="1" style="stop-color:#FFFFFF"/>
	</linearGradient>
	<path class="st7" d="M631,14.1h-4l1.5,16.6l1-0.8L631,14.1z"/>
	<g>
		<defs>
			<circle id="SVGID_14_" cx="629" cy="10" r="10"/>
		</defs>
		<clipPath id="SVGID_15_">
			<use xlink:href="#SVGID_14_"  style="overflow:visible;"/>
		</clipPath>
		
			<radialGradient id="SVGID_16_" cx="624.95831" cy="584.76038" r="15.64063" gradientTransform="matrix(1 0 0 -1 0 592)" gradientUnits="userSpaceOnUse">
			<stop  offset="0" style="stop-color:#F5B12F"/>
			<stop  offset="1" style="stop-color:#E9661A"/>
		</radialGradient>
		<path class="st8" d="M625-8.4c8.59998,0,15.59998,7,15.59998,15.6s-7,15.6-15.59998,15.6s-15.59998-7-15.59998-15.6
			C609.29999-1.4,616.29999-8.4,625-8.4z"/>
	</g>
</g>
</svg>
