<svg version="1.1" class="hide-for-large" id="Layer_2" xmlns="http://www.w3.org/2000/svg" xmlns:xlink="http://www.w3.org/1999/xlink" x="0px" y="0px"
	 width="275px" height="320px" viewBox="0 0 275 320" style="enable-background:new 0 0 275 320;" xml:space="preserve">
<style type="text/css">
	.st0{opacity:0.2;fill:none;stroke:#3D302A;stroke-miterlimit:10;stroke-dasharray:4.029,4.0289;enable-background:new    ;}
	.st11{fill:url(#SVGID_111_);}
	.st12{clip-path:url(#SVGID_31_);fill:url(#SVGID_41_);}
	.st13{fill:url(#SVGID_51_);}
	.st14{clip-path:url(#SVGID_71_);fill:url(#SVGID_81_);}
	.st15{fill:url(#SVGID_91_);}
	.st16{clip-path:url(#SVGID_111_);fill:url(#SVGID_121_);}
	.st17{fill:url(#SVGID_131_);}
	.st18{clip-path:url(#SVGID_151_);fill:url(#SVGID_161_);}
</style>
<path id="path-11_1_" class="st0 show-for-medium" d="M12.25385,63.9655L9.53333,64.5"/>
<path id="path-12" class="st0 show-for-medium" d="M9.53333,64.5l1.21981,3.36236"/>
<path id="path-13" class="st0 show-for-medium" d="M75.30125,245.8l3.63634-4.44666"/>
<path id="path-14" class="st0 show-for-medium" d="M11.66541,66.87897L9.53333,64.5"/>
<path id="path-15" class="st0 show-for-medium" d="M224.32834,298.53146l-0.6889,4.86853"/>

<path id="path-111_1_" class="st0 hide-for-medium" d="M264.53333,14.4l-255,50.1"/>
<path id="path-112" class="st0 hide-for-medium" d="M9.53333,64.5l65.80911,181.39999"/>
<path id="path-113" class="st0 hide-for-medium" d="M75.30125,245.8L264.53333,14.4"/>
<path id="path-114" class="st0 hide-for-medium" d="M223.63943,303.39999L9.53333,64.5"/>
<path id="path-115" class="st0 hide-for-medium" d="M264.53333,14.4l-40.89389,289"/>
<g id="pin-101">
	
		<linearGradient id="SVGID_111_" gradientUnits="userSpaceOnUse" x1="8.29803" y1="-471.60001" x2="12.34003" y2="-471.60001" gradientTransform="matrix(1 0 0 1 0 542)">
		<stop  offset="0" style="stop-color:#755C52"/>
		<stop  offset="1" style="stop-color:#FFFFFF"/>
	</linearGradient>
	<path class="st11" d="M12.33333,62.1h-4l1.5,16.6l1-0.8L12.33333,62.1z"/>
	<g>
		<g>
			<defs>
				<circle id="SVGID_21_" cx="10.33333" cy="58" r="10"/>
			</defs>
			<clipPath id="SVGID_31_">
				<use xlink:href="#SVGID_21_"  style="overflow:visible;"/>
			</clipPath>
			
				<radialGradient id="SVGID_41_" cx="6.29163" cy="-486.76038" r="15.625" gradientTransform="matrix(1 0 0 1 0 542)" gradientUnits="userSpaceOnUse">
				<stop  offset="0" style="stop-color:#F5B12F"/>
				<stop  offset="1" style="stop-color:#E9661A"/>
			</radialGradient>
			<path class="st12" d="M6.33333,39.6c8.6,0,15.6,7,15.6,15.6s-7,15.60001-15.6,15.60001s-15.6-7-15.6-15.6
				C-9.36667,46.6-2.36667,39.6,6.33333,39.6z"/>
		</g>
	</g>
</g>
<g id="pin-102">
	
		<linearGradient id="SVGID_51_" gradientUnits="userSpaceOnUse" x1="73.79804" y1="-288.59998" x2="77.84003" y2="-288.59998" gradientTransform="matrix(1 0 0 1 0 542)">
		<stop  offset="0" style="stop-color:#755C52"/>
		<stop  offset="1" style="stop-color:#FFFFFF"/>
	</linearGradient>
	<path class="st13" d="M77.83334,245.10001h-4l1.5,16.60001l1-0.79999L77.83334,245.10001z"/>
	<g>
		<g>
			<defs>
				<circle id="SVGID_61_" cx="75.83334" cy="241" r="10"/>
			</defs>
			<clipPath id="SVGID_71_">
				<use xlink:href="#SVGID_61_"  style="overflow:visible;"/>
			</clipPath>
			
				<radialGradient id="SVGID_81_" cx="71.79163" cy="-303.76041" r="15.625" gradientTransform="matrix(1 0 0 1 0 542)" gradientUnits="userSpaceOnUse">
				<stop  offset="0" style="stop-color:#F5B12F"/>
				<stop  offset="1" style="stop-color:#E9661A"/>
			</radialGradient>
			<path class="st14" d="M71.83334,222.60001c8.60001,0,15.60001,7,15.60001,15.60001s-7,15.60001-15.60001,15.60001
				s-15.60001-7-15.60001-15.60001C56.13334,229.60001,63.13334,222.60001,71.83334,222.60001z"/>
		</g>
	</g>
</g>
<g id="pin-103">
	
		<linearGradient id="SVGID_91_" gradientUnits="userSpaceOnUse" x1="221.46472" y1="-231.59999" x2="225.50671" y2="-231.59999" gradientTransform="matrix(1 0 0 1 0 542)">
		<stop  offset="0" style="stop-color:#755C52"/>
		<stop  offset="1" style="stop-color:#FFFFFF"/>
	</linearGradient>
	<path class="st15" d="M225.5,302.10001h-4l1.5,16.60001l1-0.79999L225.5,302.10001z"/>
	<g>
		<g>
			<defs>
				<circle id="SVGID_101_" cx="223.5" cy="298" r="10"/>
			</defs>
			<clipPath id="SVGID_111_">
				<use xlink:href="#SVGID_101_"  style="overflow:visible;"/>
			</clipPath>
			
				<radialGradient id="SVGID_121_" cx="219.45831" cy="-246.76041" r="15.6406" gradientTransform="matrix(1 0 0 1 0 542)" gradientUnits="userSpaceOnUse">
				<stop  offset="0" style="stop-color:#F5B12F"/>
				<stop  offset="1" style="stop-color:#E9661A"/>
			</radialGradient>
			<path class="st16" d="M219.5,279.60001c8.59998,0,15.59998,7,15.59998,15.60001s-7,15.60001-15.59998,15.60001
				s-15.60001-7-15.60001-15.60001C203.79999,286.60001,210.79999,279.60001,219.5,279.60001z"/>
		</g>
	</g>
</g>
<g id="pin-104">
	
		<linearGradient id="SVGID_131_" gradientUnits="userSpaceOnUse" x1="262.63138" y1="-519.59998" x2="266.67337" y2="-519.59998" gradientTransform="matrix(1 0 0 1 0 542)">
		<stop  offset="0" style="stop-color:#755C52"/>
		<stop  offset="1" style="stop-color:#FFFFFF"/>
	</linearGradient>
	<path class="st17" d="M266.66666,14.1h-4l1.5,16.6l1-0.8L266.66666,14.1z"/>
	<g>
		<g>
			<defs>
				<circle id="SVGID_141_" cx="264.66666" cy="10" r="10"/>
			</defs>
			<clipPath id="SVGID_151_">
				<use xlink:href="#SVGID_141_"  style="overflow:visible;"/>
			</clipPath>
			
				<radialGradient id="SVGID_161_" cx="260.62497" cy="-534.76038" r="15.6406" gradientTransform="matrix(1 0 0 1 0 542)" gradientUnits="userSpaceOnUse">
				<stop  offset="0" style="stop-color:#F5B12F"/>
				<stop  offset="1" style="stop-color:#E9661A"/>
			</radialGradient>
			<path class="st18" d="M260.66666-8.4c8.59998,0,15.59998,7,15.59998,15.6s-7,15.6-15.59998,15.6
				c-8.59996,0-15.59996-7-15.59996-15.6C244.96666-1.4,251.96666-8.4,260.66666-8.4z"/>
		</g>
	</g>
</g>
</svg>