<?xml version="1.0" encoding="utf-8"?>
<!-- Generator: Adobe Illustrator 19.2.1, SVG Export Plug-In . SVG Version: 6.00 Build 0)  -->
<svg version="1.1" id="Layer_1" xmlns="http://www.w3.org/2000/svg" xmlns:xlink="http://www.w3.org/1999/xlink" x="0px" y="0px"
	 width="622.02142px" height="290.68042px" viewBox="0 0 622.02142 290.68042"
	 style="enable-background:new 0 0 622.02142 290.68042;" xml:space="preserve">
<style type="text/css">
	.st0{opacity:0.2;}
	.st1{fill:none;stroke:#3D302A;stroke-miterlimit:10;}
	.st2{fill:none;stroke:#3D302A;stroke-miterlimit:10;stroke-dasharray:3.98214,3.98214;}
	.st3{fill:none;stroke:#3D302A;stroke-miterlimit:10;stroke-dasharray:4.02116,4.02116;}
	.st4{fill:none;stroke:#3D302A;stroke-miterlimit:10;stroke-dasharray:3.97334,3.97334;}
	.st5{fill:none;stroke:#3D302A;stroke-miterlimit:10;stroke-dasharray:4.02886,4.02886;}
	.st6{fill:none;stroke:#3D302A;stroke-miterlimit:10;stroke-dasharray:4.01912,4.01912;}
</style>
<g id="line-03" class="st0">
	<g>
		<g>
			<line class="st1" x1="621.14941" y1="0.99901" x2="619.15588" y2="1.16006"/>
			<line class="st2" x1="615.18671" y1="1.48071" x2="5.9124" y2="50.70045"/>
			<line class="st1" x1="3.92778" y1="50.86077" x2="1.93428" y2="51.02182"/>
		</g>
	</g>
</g>
<g id="line-02" class="st0">
	<g>
		<g>
			<line class="st1" x1="621.14941" y1="0.99901" x2="620.49939" y2="2.89043"/>
			<line class="st3" x1="619.19244" y1="6.69328" x2="523.1322" y2="286.20248"/>
			<polyline class="st1" points="522.4787,288.10391 521.82867,289.99533 520.01147,289.16003 			"/>
			<line class="st4" x1="516.40125" y1="287.50055" x2="5.5566" y2="52.68684"/>
			<line class="st1" x1="3.75151" y1="51.85712" x2="1.93428" y2="51.02182"/>
		</g>
	</g>
</g>
<g id="line-01" class="st0">
	<g>
		<g>
			<line class="st1" x1="1.93428" y1="51.02182" x2="3.2563" y2="52.52259"/>
			<line class="st5" x1="5.91936" y1="55.54579" x2="159.04654" y2="229.37984"/>
			<polyline class="st1" points="160.37808,230.89145 161.70009,232.39221 163.48634,231.4926 			"/>
			<line class="st6" x1="167.07591" y1="229.68477" x2="617.56836" y2="2.80254"/>
			<line class="st1" x1="619.36316" y1="1.89863" x2="621.14941" y2="0.99901"/>
		</g>
	</g>
</g>
</svg>
