<?xml version="1.0" encoding="utf-8"?>
<!-- Generator: Adobe Illustrator 15.0.0, SVG Export Plug-In . SVG Version: 6.00 Build 0)  -->
<!DOCTYPE svg PUBLIC "-//W3C//DTD SVG 1.1//EN" "http://www.w3.org/Graphics/SVG/1.1/DTD/svg11.dtd">
<svg version="1.1" id="Слой_1" xmlns="http://www.w3.org/2000/svg" xmlns:xlink="http://www.w3.org/1999/xlink" x="0px" y="0px"
	 width="36px" height="36px" viewBox="0 0 36 36" enable-background="new 0 0 36 36" xml:space="preserve">
<g>
	<g>
		<path fill="#010202" d="M33.142,30.597l-9.008-9.009c3.378-4.609,2.994-11.065-1.18-15.238c-4.612-4.613-12.099-4.613-16.636,0
			c-4.613,4.612-4.613,12.023,0,16.636c4.195,4.195,10.698,4.562,15.312,1.126l8.999,8.999L33.142,30.597z M8.813,20.565
			c-3.176-3.176-3.176-8.394,0-11.569s8.394-3.176,11.57,0c3.176,3.176,3.176,8.394,0,11.569
			C17.207,23.742,11.989,23.742,8.813,20.565z"/>
	</g>
</g>
</svg>
