<?xml version="1.0" encoding="utf-8"?>
<!-- Generator: Adobe Illustrator 15.0.0, SVG Export Plug-In . SVG Version: 6.00 Build 0)  -->
<!DOCTYPE svg PUBLIC "-//W3C//DTD SVG 1.1//EN" "http://www.w3.org/Graphics/SVG/1.1/DTD/svg11.dtd">
<svg version="1.1" id="Слой_1" xmlns="http://www.w3.org/2000/svg" xmlns:xlink="http://www.w3.org/1999/xlink" x="0px" y="0px"
	 width="50px" height="32px" viewBox="0 0 50 32" enable-background="new 0 0 50 32" xml:space="preserve">
<path fill="#687684" d="M48.858,19.861c-0.693-4.636-4.635-7.938-9.109-8.151c1.118-4.154,3.835-5.807,7.138-6.765
	c0.319-0.106,0.267-0.427,0.267-0.427L46.62,1.218c0,0-0.053-0.268-0.479-0.215c-11.4,1.278-19.125,9.962-17.686,20.51
	c1.331,7.297,7.031,10.121,12.305,9.375C46.034,30.036,49.657,25.135,48.858,19.861L48.858,19.861z M12.475,11.71
	c1.065-4.154,3.889-5.807,7.138-6.765c0.319-0.106,0.266-0.427,0.266-0.427l-0.479-3.301c0,0-0.053-0.268-0.479-0.215
	C7.521,2.229-0.15,10.911,1.181,21.46c1.385,7.35,7.138,10.174,12.359,9.428c5.273-0.852,8.896-5.753,8.043-11.026
	C20.891,15.173,17.002,11.871,12.475,11.71z"/>
</svg>
